<svg xmlns="http://www.w3.org/2000/svg" width="920" height="440" viewBox="0 0 920 440">
  <rect width="100%" height="100%" fill="white"/>
  <text x="70" y="24" font-size="18" font-weight="700">RSH 1DC local training: 1DivideAndConquer_unilateral_2026_05_28_090751</text>
  <line x1="70" y1="368.0" x2="890" y2="368.0" stroke="#e7e7e7" /><text x="60" y="372.0" text-anchor="end" font-size="12">0.35</text><line x1="70" y1="302.8" x2="890" y2="302.8" stroke="#e7e7e7" /><text x="60" y="306.8" text-anchor="end" font-size="12">0.48</text><line x1="70" y1="237.6" x2="890" y2="237.6" stroke="#e7e7e7" /><text x="60" y="241.6" text-anchor="end" font-size="12">0.61</text><line x1="70" y1="172.4" x2="890" y2="172.4" stroke="#e7e7e7" /><text x="60" y="176.4" text-anchor="end" font-size="12">0.74</text><line x1="70" y1="107.2" x2="890" y2="107.2" stroke="#e7e7e7" /><text x="60" y="111.2" text-anchor="end" font-size="12">0.87</text><line x1="70" y1="42.0" x2="890" y2="42.0" stroke="#e7e7e7" /><text x="60" y="46.0" text-anchor="end" font-size="12">1.00</text>
  <line x1="70.0" y1="42" x2="70.0" y2="368" stroke="#f2f2f2" /><text x="70.0" y="390" text-anchor="middle" font-size="12">0</text><line x1="235.7" y1="42" x2="235.7" y2="368" stroke="#f2f2f2" /><text x="235.7" y="390" text-anchor="middle" font-size="12">20</text><line x1="401.3" y1="42" x2="401.3" y2="368" stroke="#f2f2f2" /><text x="401.3" y="390" text-anchor="middle" font-size="12">40</text><line x1="558.7" y1="42" x2="558.7" y2="368" stroke="#f2f2f2" /><text x="558.7" y="390" text-anchor="middle" font-size="12">59</text><line x1="724.3" y1="42" x2="724.3" y2="368" stroke="#f2f2f2" /><text x="724.3" y="390" text-anchor="middle" font-size="12">79</text><line x1="890.0" y1="42" x2="890.0" y2="368" stroke="#f2f2f2" /><text x="890.0" y="390" text-anchor="middle" font-size="12">99</text>
  <rect x="70" y="42" width="820" height="326" fill="none" stroke="#333"/>
  <polyline fill="none" stroke="#2864c9" stroke-width="2.4" points="70.0,227.4 78.3,227.4 86.6,227.4 94.8,227.4 103.1,227.4 111.4,227.4 119.7,227.4 128.0,227.4 136.3,227.4 144.5,227.4 152.8,227.4 161.1,227.4 169.4,227.4 177.7,227.4 186.0,227.4 194.2,227.4 202.5,227.4 210.8,227.4 219.1,227.4 227.4,227.4 235.7,227.4 243.9,227.4 252.2,227.4 260.5,227.4 268.8,227.4 277.1,227.4 285.4,227.4 293.6,227.4 301.9,227.4 310.2,227.4 318.5,227.4 326.8,227.4 335.1,227.4 343.3,216.0 351.6,227.4 359.9,211.8 368.2,201.8 376.5,216.0 384.7,188.9 393.0,211.8 401.3,190.4 409.6,178.9 417.9,196.1 426.2,193.2 434.4,190.4 442.7,171.8 451.0,171.8 459.3,150.4 467.6,193.2 475.9,159.0 484.1,133.3 492.4,140.4 500.7,134.7 509.0,144.7 517.3,156.1 525.6,134.7 533.8,111.9 542.1,130.4 550.4,130.4 558.7,107.6 567.0,129.0 575.3,113.3 583.5,109.0 591.8,109.0 600.1,110.5 608.4,124.7 616.7,101.9 624.9,121.9 633.2,100.5 641.5,120.5 649.8,103.3 658.1,84.8 666.4,101.9 674.6,86.2 682.9,90.5 691.2,111.9 699.5,83.4 707.8,97.6 716.1,101.9 724.3,111.9 732.6,90.5 740.9,77.7 749.2,79.1 757.5,81.9 765.8,90.5 774.0,86.2 782.3,84.8 790.6,79.1 798.9,87.6 807.2,89.1 815.5,103.3 823.7,89.1 832.0,80.5 840.3,69.1 848.6,81.9 856.9,96.2 865.2,67.7 873.4,77.7 881.7,69.1 890.0,63.4" /><polyline fill="none" stroke="#d55e00" stroke-width="2.4" points="70.0,243.4 78.3,243.4 86.6,243.4 94.8,243.4 103.1,243.4 111.4,243.4 119.7,243.4 128.0,243.4 136.3,243.4 144.5,243.4 152.8,243.4 161.1,243.4 169.4,243.4 177.7,243.4 186.0,243.4 194.2,243.4 202.5,243.4 210.8,243.4 219.1,243.4 227.4,243.4 235.7,243.4 243.9,243.4 252.2,243.4 260.5,243.4 268.8,243.4 277.1,243.4 285.4,243.4 293.6,243.4 301.9,243.4 310.2,243.4 318.5,243.4 326.8,243.4 335.1,243.4 343.3,272.2 351.6,243.4 359.9,249.2 368.2,266.4 376.5,249.2 384.7,272.2 393.0,254.9 401.3,283.7 409.6,254.9 417.9,260.7 426.2,243.4 434.4,249.2 442.7,243.4 451.0,266.4 459.3,266.4 467.6,249.2 475.9,226.2 484.1,237.7 492.4,237.7 500.7,272.2 509.0,272.2 517.3,249.2 525.6,249.2 533.8,260.7 542.1,231.9 550.4,214.7 558.7,289.5 567.0,266.4 575.3,254.9 583.5,254.9 591.8,254.9 600.1,272.2 608.4,243.4 616.7,260.7 624.9,243.4 633.2,249.2 641.5,237.7 649.8,249.2 658.1,237.7 666.4,254.9 674.6,243.4 682.9,237.7 691.2,272.2 699.5,278.0 707.8,266.4 716.1,249.2 724.3,243.4 732.6,243.4 740.9,260.7 749.2,249.2 757.5,272.2 765.8,231.9 774.0,254.9 782.3,260.7 790.6,231.9 798.9,231.9 807.2,260.7 815.5,254.9 823.7,237.7 832.0,254.9 840.3,254.9 848.6,260.7 856.9,249.2 865.2,226.2 873.4,243.4 881.7,214.7 890.0,231.9" /><polyline fill="none" stroke="#00876c" stroke-width="2.4" points="70.0,310.4 78.3,291.8 86.6,294.3 94.8,268.1 103.1,250.9 111.4,254.8 119.7,267.6 128.0,264.3 136.3,268.2 144.5,264.3 152.8,280.0 161.1,281.3 169.4,258.9 177.7,259.2 186.0,258.1 194.2,250.0 202.5,244.8 210.8,207.7 219.1,247.0 227.4,245.5 235.7,225.2 243.9,265.3 252.2,217.9 260.5,239.7 268.8,213.6 277.1,227.8 285.4,223.2 293.6,217.7 301.9,211.3 310.2,208.7 318.5,241.9 326.8,233.8 335.1,189.7 343.3,209.3 351.6,189.6 359.9,184.8 368.2,171.2 376.5,176.8 384.7,145.6 393.0,150.8 401.3,171.3 409.6,138.9 417.9,164.3 426.2,146.5 434.4,144.3 442.7,123.3 451.0,108.1 459.3,106.9 467.6,147.8 475.9,110.1 484.1,102.0 492.4,83.7 500.7,98.4 509.0,97.3 517.3,91.9 525.6,90.1 533.8,78.4 542.1,89.6 550.4,80.2 558.7,79.3 567.0,90.3 575.3,74.6 583.5,78.5 591.8,67.3 600.1,73.8 608.4,65.0 616.7,76.3 624.9,61.4 633.2,63.1 641.5,68.4 649.8,72.6 658.1,59.8 666.4,65.9 674.6,59.0 682.9,63.8 691.2,62.0 699.5,53.1 707.8,55.1 716.1,62.6 724.3,67.5 732.6,56.1 740.9,56.5 749.2,51.7 757.5,52.9 765.8,53.3 774.0,54.4 782.3,51.7 790.6,56.2 798.9,53.1 807.2,59.6 815.5,53.9 823.7,54.0 832.0,51.7 840.3,51.1 848.6,51.6 856.9,53.9 865.2,50.5 873.4,48.1 881.7,51.6 890.0,49.4" /><polyline fill="none" stroke="#7b3294" stroke-width="2.4" points="70.0,343.0 78.3,318.8 86.6,299.5 94.8,288.8 103.1,262.4 111.4,254.9 119.7,254.1 128.0,242.6 136.3,259.1 144.5,237.9 152.8,269.5 161.1,254.9 169.4,253.8 177.7,257.7 186.0,245.0 194.2,249.7 202.5,252.7 210.8,242.0 219.1,258.8 227.4,251.9 235.7,241.5 243.9,247.0 252.2,245.9 260.5,243.4 268.8,248.3 277.1,233.2 285.4,245.0 293.6,247.0 301.9,247.2 310.2,251.6 318.5,273.4 326.8,263.7 335.1,284.1 343.3,271.4 351.6,260.2 359.9,257.7 368.2,257.7 376.5,264.0 384.7,254.9 393.0,258.0 401.3,271.2 409.6,248.1 417.9,258.5 426.2,239.8 434.4,249.7 442.7,248.6 451.0,250.5 459.3,245.6 467.6,253.8 475.9,234.3 484.1,252.2 492.4,251.6 500.7,258.8 509.0,261.3 517.3,237.9 525.6,262.4 533.8,249.2 542.1,247.2 550.4,249.4 558.7,268.4 567.0,249.4 575.3,235.4 583.5,259.6 591.8,248.6 600.1,251.1 608.4,277.2 616.7,253.0 624.9,256.6 633.2,251.9 641.5,271.2 649.8,241.5 658.1,239.5 666.4,234.8 674.6,246.4 682.9,251.1 691.2,262.4 699.5,252.7 707.8,251.4 716.1,253.6 724.3,244.8 732.6,243.4 740.9,247.8 749.2,256.0 757.5,244.5 765.8,252.7 774.0,259.1 782.3,243.4 790.6,252.5 798.9,261.8 807.2,249.2 815.5,236.5 823.7,257.7 832.0,252.5 840.3,247.5 848.6,251.1 856.9,257.4 865.2,269.0 873.4,260.2 881.7,245.3 890.0,244.8" />
  <text x="480.0" y="422" text-anchor="middle" font-size="13">epoch</text>
  <text x="20" y="205.0" transform="rotate(-90 20 205.0)" text-anchor="middle" font-size="13">metric</text>
  <line x1="70" y1="396" x2="98" y2="396" stroke="#2864c9" stroke-width="3" /><text x="106" y="400" font-size="13">train accuracy</text><line x1="350" y1="396" x2="378" y2="396" stroke="#d55e00" stroke-width="3" /><text x="386" y="400" font-size="13">val accuracy</text><line x1="70" y1="418" x2="98" y2="418" stroke="#00876c" stroke-width="3" /><text x="106" y="422" font-size="13">train class-2 AUROC</text><line x1="350" y1="418" x2="378" y2="418" stroke="#7b3294" stroke-width="3" /><text x="386" y="422" font-size="13">val class-2 AUROC</text>
</svg>
